<svg width="150" height="30" viewBox="0 0 150 30" fill="none" xmlns="http://www.w3.org/2000/svg">
<path d="M6.8136 15L3.40599 18.3874L0 15L3.40436 11.6126L6.81198 15H6.8136ZM15.0751 6.7732L20.9104 12.5827L24.3148 9.19532L15.0751 0L5.83536 9.19371L9.23972 12.5811L15.0751 6.77159V6.7732ZM26.7474 11.6126L23.343 15L26.7474 18.3874L30.1501 15L26.7474 11.6126ZM15.0751 23.2268L9.23972 17.4205L5.83536 20.8063L15.0751 30L24.3148 20.8063L20.9104 17.4205L15.0751 23.2268ZM15.0751 18.3874L18.4794 15L15.0751 11.6126L11.6707 15L15.0751 18.3874ZM51.0102 18.7124V18.6655C51.0102 16.4552 49.8321 15.3509 47.9146 14.6233C49.0927 13.9636 50.0888 12.9287 50.0888 11.0742V11.0273C50.0888 8.44184 48.0088 6.77159 44.6305 6.77159H36.9605V23.2252H44.8255C48.5581 23.2252 51.0167 21.7215 51.0167 18.7124H51.0102ZM46.4748 11.6789C46.4748 12.9013 45.4592 13.4203 43.8537 13.4203H40.5046V9.94718H44.0959C45.6298 9.94718 46.4813 10.5568 46.4813 11.6385L46.4748 11.6789ZM47.3962 18.2613C47.3962 19.4837 46.4277 20.0464 44.819 20.0464H40.5046V16.4326H44.7085C46.5756 16.4326 47.4043 17.1149 47.4043 18.2209L47.3978 18.2613H47.3962ZM58.6542 23.2268V6.7732H55.0044V23.2268H58.6542ZM78.2094 23.2268V6.7732H74.6068V16.9047L66.8604 6.7732H63.5048V23.2268H67.096V12.7671L75.1024 23.2268H78.2094ZM98.3593 23.2268L91.2613 6.65517H87.9057L80.8224 23.2268H84.5306L86.0467 19.537H93.0391L94.5503 23.2268H98.3593ZM91.7472 16.3388H87.3402L89.5372 11.0046L91.7456 16.3388H91.7472ZM115.7 23.2268V6.7732H112.097V16.9047L104.347 6.7732H100.995V23.2268H104.583V12.7671L112.593 23.2268H115.7ZM134.476 20.5718L132.164 18.2451C130.866 19.4174 129.707 20.1709 127.817 20.1709C124.983 20.1709 123.022 17.8263 123.022 15.0016V14.9547C123.022 12.1348 125.03 9.83238 127.817 9.83238C129.47 9.83238 130.763 10.5357 132.047 11.687L134.353 9.03201C132.819 7.5283 130.953 6.49348 127.835 6.49348C122.757 6.49348 119.213 10.3239 119.213 14.9935V15.0404C119.213 19.765 122.827 23.5017 127.694 23.5017C130.877 23.5098 132.765 22.3828 134.465 20.5735H134.476V20.5718ZM150 23.2268V20.0027H141.011V16.5409H148.807V13.3168H141.011V9.99245H149.87V6.76835H137.397V23.2219L150 23.2252V23.2268Z" fill="#EEFF01"/>
</svg>
