<svg width="22" height="24" viewBox="0 0 22 24" fill="none" xmlns="http://www.w3.org/2000/svg">
<path d="M8 19.0307C3 20.5307 3 16.5307 1 16.0307M15 22.0307V18.1607C15.08 17.2007 14.73 16.2407 14.06 15.5507C17.2 15.2007 20.5 14.0107 20.5 8.5507C20.5 7.1507 19.96 5.8107 19 4.8007C19.46 3.5807 19.42 2.2307 18.91 1.0307C18.91 1.0307 17.73 0.680699 15 2.5107C12.71 1.8907 10.29 1.8907 8 2.5107C5.27 0.680699 4.09 1.0307 4.09 1.0307C3.58 2.2307 3.54 3.5807 4 4.8007C3.03 5.8207 2.49 7.1707 2.5 8.5807C2.5 14.0007 5.8 15.1907 8.94 15.5807C8.27 16.2707 7.93 17.2107 8 18.1607V22.0307" stroke="white" stroke-opacity="0.24" stroke-width="2" stroke-linecap="round" stroke-linejoin="round"/>
</svg>
