<svg width="20" height="20" viewBox="0 0 20 20" fill="none" xmlns="http://www.w3.org/2000/svg">
<path d="M10 0C4.47711 0 0 4.47711 0 10C0 15.5229 4.47711 20 10 20C15.5229 20 20 15.5229 20 10C20 4.47711 15.5233 0 10 0ZM14.99 11.4494L11.449 14.9904C10.6485 15.7909 9.35076 15.7909 8.5506 14.9904L5.00963 11.4494C4.20908 10.6489 4.20908 9.35115 5.00963 8.55099L8.5506 5.01002C9.35115 4.20947 10.6489 4.20947 11.449 5.01002L14.99 8.55099C15.7905 9.35154 15.7905 10.6492 14.99 11.4494Z" fill="#EEFF01"/>
</svg>
