<svg width="92" height="20" viewBox="0 0 92 20" fill="none" xmlns="http://www.w3.org/2000/svg">
<path d="M30.6424 0.667969H30.4564C29.6508 0.667969 29 1.30803 29 2.09811V17.4597C29 18.5298 29.8883 19.3999 30.9833 19.3999H38.1725C38.9782 19.3999 39.629 18.7598 39.629 17.9697C39.629 17.1797 38.9782 16.5396 38.1725 16.5396H32.0988V2.09811C32.0988 1.30803 31.4481 0.667969 30.6424 0.667969Z" fill="white"/>
<path d="M70.4106 0.667969H60.6493C59.8126 0.667969 59.1309 1.33804 59.1309 2.15812C59.1309 2.9782 59.8126 3.64827 60.6493 3.64827H64.0167V17.9397C64.0167 18.7498 64.6778 19.3999 65.5041 19.3999H65.5454C66.3718 19.3999 67.0329 18.7498 67.0329 17.9397V3.64827H70.4003C71.237 3.64827 71.9187 2.9782 71.9187 2.15812C71.9187 1.33804 71.237 0.667969 70.4003 0.667969" fill="white"/>
<path d="M56.5484 12.6783C55.9906 12.6783 55.4742 12.9783 55.1953 13.4583C54.8854 13.9884 54.5032 14.4684 54.059 14.9085C52.7162 16.2286 50.9395 16.9487 49.0493 16.9487C47.159 16.9487 45.3823 16.2186 44.0395 14.9085C42.9549 13.8584 42.2628 12.5282 42.0356 11.0681H57.54C58.4697 11.0681 59.2134 10.308 59.1824 9.39792C59.1721 9.01788 59.1514 8.67785 59.1205 8.51783C58.3664 3.53732 53.9144 -0.183056 48.6464 0.00696375C46.0744 0.106974 43.6676 1.12708 41.8393 2.92726C40.011 4.71744 38.9677 7.07768 38.8644 9.60794C38.6475 15.2485 43.1615 19.929 48.9046 19.999C52.7472 20.049 56.1146 17.9988 57.8912 14.9485C58.48 13.9384 57.7363 12.6683 56.5381 12.6683L56.5484 12.6783ZM44.0292 5.08748C45.372 3.76735 47.1486 3.04727 49.0389 3.04727C50.9292 3.04727 52.7059 3.77735 54.0487 5.09748C54.906 5.92757 55.5155 6.94767 55.8357 8.08779H42.2215C42.552 6.95767 43.1615 5.93757 44.0292 5.09748V5.08748Z" fill="white"/>
<path d="M81.4218 0.00716922C78.8498 0.107179 76.443 1.12728 74.6147 2.92747C72.7864 4.71765 71.7431 7.07789 71.6398 9.60815C71.4229 15.2487 75.9369 19.9292 81.68 19.9992C87.4025 20.0692 92.0818 15.4887 91.9991 9.86817C91.9372 4.2276 87.165 -0.202852 81.4218 0.00716922ZM81.7317 16.9689C77.7239 16.9189 74.5837 13.6586 74.7387 9.72816C74.811 7.96798 75.534 6.32781 76.8045 5.07769C78.0751 3.82756 79.7484 3.11749 81.5458 3.04748C85.5432 2.89746 88.8693 5.98778 88.921 9.91818C88.9726 13.8286 85.7188 17.0289 81.7317 16.9789V16.9689Z" fill="white"/>
<path d="M10 0C4.47711 0 0 4.47711 0 10C0 15.5229 4.47711 20 10 20C15.5229 20 20 15.5229 20 10C20 4.47711 15.5233 0 10 0ZM14.99 11.4494L11.449 14.9904C10.6485 15.7909 9.35076 15.7909 8.5506 14.9904L5.00963 11.4494C4.20908 10.6489 4.20908 9.35115 5.00963 8.55099L8.5506 5.01002C9.35115 4.20947 10.6489 4.20947 11.449 5.01002L14.99 8.55099C15.7905 9.35154 15.7905 10.6492 14.99 11.4494Z" fill="#EEFF01"/>
</svg>
