<svg width="63" height="20" viewBox="0 0 63 20" fill="none" xmlns="http://www.w3.org/2000/svg">
<path d="M1.64238 0.667969H1.45645C0.650754 0.667969 0 1.30803 0 2.09811V17.4597C0 18.5298 0.888331 19.3999 1.98325 19.3999H9.17254C9.97823 19.3999 10.629 18.7598 10.629 17.9697C10.629 17.1797 9.97823 16.5396 9.17254 16.5396H3.09883V2.09811C3.09883 1.30803 2.44808 0.667969 1.64238 0.667969Z" fill="white"/>
<path d="M41.4106 0.667969H31.6493C30.8126 0.667969 30.1309 1.33804 30.1309 2.15812C30.1309 2.9782 30.8126 3.64827 31.6493 3.64827H35.0167V17.9397C35.0167 18.7498 35.6778 19.3999 36.5041 19.3999H36.5454C37.3718 19.3999 38.0329 18.7498 38.0329 17.9397V3.64827H41.4003C42.237 3.64827 42.9187 2.9782 42.9187 2.15812C42.9187 1.33804 42.237 0.667969 41.4003 0.667969" fill="white"/>
<path d="M27.5484 12.6783C26.9906 12.6783 26.4742 12.9783 26.1953 13.4583C25.8854 13.9884 25.5032 14.4684 25.059 14.9085C23.7162 16.2286 21.9395 16.9487 20.0493 16.9487C18.159 16.9487 16.3823 16.2186 15.0395 14.9085C13.9549 13.8584 13.2628 12.5282 13.0356 11.0681H28.54C29.4697 11.0681 30.2134 10.308 30.1824 9.39792C30.1721 9.01788 30.1514 8.67785 30.1205 8.51783C29.3664 3.53732 24.9144 -0.183056 19.6464 0.00696375C17.0744 0.106974 14.6676 1.12708 12.8393 2.92726C11.011 4.71744 9.96773 7.07768 9.86444 9.60794C9.64752 15.2485 14.1615 19.929 19.9046 19.999C23.7472 20.049 27.1146 17.9988 28.8912 14.9485C29.48 13.9384 28.7363 12.6683 27.5381 12.6683L27.5484 12.6783ZM15.0292 5.08748C16.372 3.76735 18.1486 3.04727 20.0389 3.04727C21.9292 3.04727 23.7059 3.77735 25.0487 5.09748C25.906 5.92757 26.5155 6.94767 26.8357 8.08779H13.2215C13.552 6.95767 14.1615 5.93757 15.0292 5.09748V5.08748Z" fill="white"/>
<path d="M52.4218 0.00716922C49.8498 0.107179 47.443 1.12728 45.6147 2.92747C43.7864 4.71765 42.7431 7.07789 42.6398 9.60815C42.4229 15.2487 46.9369 19.9292 52.68 19.9992C58.4025 20.0692 63.0818 15.4887 62.9991 9.86817C62.9372 4.2276 58.165 -0.202852 52.4218 0.00716922ZM52.7317 16.9689C48.7239 16.9189 45.5837 13.6586 45.7387 9.72816C45.811 7.96798 46.534 6.32781 47.8045 5.07769C49.0751 3.82756 50.7484 3.11749 52.5458 3.04748C56.5432 2.89746 59.8693 5.98778 59.921 9.91818C59.9726 13.8286 56.7188 17.0289 52.7317 16.9789V16.9689Z" fill="white"/>
</svg>
