<svg width="8" height="128" viewBox="0 0 8 128" fill="none" xmlns="http://www.w3.org/2000/svg">
<path d="M7.45471 0.449219L1.15717 10.979C0.78 11.6097 0.779041 12.3964 1.15468 13.0279L6.84325 22.5923C7.21979 23.2254 7.21786 24.0142 6.83823 24.6455L1.16311 34.0818C0.78258 34.7146 0.781608 35.5055 1.16058 36.1392L6.84076 45.6367C7.21883 46.2688 7.21883 47.0576 6.84076 47.6898L1.15516 57.1964C0.779051 57.8253 0.77696 58.6095 1.14971 59.2403L6.84789 68.8844C7.22172 69.5171 7.21846 70.3039 6.8394 70.9334L1.16569 80.3569C0.783754 80.9913 0.783558 81.7847 1.16518 82.4193L6.83652 91.8494C7.21705 92.4821 7.21802 93.273 6.83905 93.9067L1.15887 103.404C0.7808 104.036 0.7808 104.825 1.15887 105.457L6.84076 114.958C7.21883 115.59 7.21883 116.379 6.84076 117.011L0.544922 127.538" stroke="white" stroke-opacity="0.12" stroke-width="2" stroke-miterlimit="10"/>
</svg>
